<?xml version="1.0" encoding="UTF-8" standalone="no"?>
<!DOCTYPE svg PUBLIC "-//W3C//DTD SVG 1.1//EN"
"http://www.w3.org/Graphics/SVG/1.1/DTD/svg11.dtd">
<svg viewBox="0 0 909 1286" version="1.1" xmlns="http://www.w3.org/2000/svg" xmlns:xlink="http://www.w3.org/1999/xlink">
<defs>
<style type="text/css"><![CDATA[
.g0_7{
fill: #404040;
}
.g1_7{
}
]]></style>
</defs>
<image preserveAspectRatio="none" x="523" y="363" width="310" height="342" xlink:href="img/1.png"/>
<image preserveAspectRatio="none" x="235" y="873" width="310" height="220" xlink:href="img/2.jpg"/>
<path fill-rule="evenodd" d="M476,263.7H601.1v-1.1H476v1.1Z" class="g0_7"/>
<path fill-rule="evenodd" d="M732.8,263.7h39.4v-1.1H732.8v1.1Z" class="g0_7"/>
<path fill-rule="evenodd" d="M110,295.9h89.7v-1.1H110v1.1Z" class="g0_7"/>
<image preserveAspectRatio="none" x="138" y="402" width="13" height="13" xlink:href="img/3.png"/>
<image preserveAspectRatio="none" x="138" y="810" width="15" height="16" xlink:href="img/4.png"/>
<path fill-rule="evenodd" d="M438.7,173.7c0,-2.3,1.9,-4.2,4.2,-4.2h49.7c2.4,0,4.2,1.9,4.2,4.2c0,2.4,-1.8,4.2,-4.2,4.2H442.9c-2.3,0,-4.2,-1.8,-4.2,-4.2Z" class="g1_7"/>
</svg>