<?xml version="1.0" encoding="UTF-8" standalone="no"?>
<!DOCTYPE svg PUBLIC "-//W3C//DTD SVG 1.1//EN"
"http://www.w3.org/Graphics/SVG/1.1/DTD/svg11.dtd">
<svg viewBox="0 0 909 1286" version="1.1" xmlns="http://www.w3.org/2000/svg" xmlns:xlink="http://www.w3.org/1999/xlink">
<defs>
<style type="text/css"><![CDATA[
.g0_18{
}
.g1_18{
fill: #7E7E7E;
}
]]></style>
</defs>
<path fill-rule="evenodd" d="M101.1,261.5h.7v-.8h-.7v.8Z" class="g0_18"/>
<path fill-rule="evenodd" d="M101.1,261.5h.7v-.8h-.7v.8Z" class="g0_18"/>
<path fill-rule="evenodd" d="M101.8,261.5H835.4v-.8H101.8v.8Z" class="g0_18"/>
<path fill-rule="evenodd" d="M835.4,261.5h.8v-.8h-.8v.8Z" class="g0_18"/>
<path fill-rule="evenodd" d="M835.4,261.5h.8v-.8h-.8v.8Z" class="g0_18"/>
<path fill-rule="evenodd" d="M101.1,307.3h.7v-.7h-.7v.7Z" class="g0_18"/>
<path fill-rule="evenodd" d="M101.1,307.3h.7v-.7h-.7v.7Z" class="g0_18"/>
<path fill-rule="evenodd" d="M101.8,307.3H835.4v-.7H101.8v.7Z" class="g0_18"/>
<path fill-rule="evenodd" d="M835.4,307.3h.8v-.7h-.8v.7Z" class="g0_18"/>
<path fill-rule="evenodd" d="M835.4,307.3h.8v-.7h-.8v.7Z" class="g0_18"/>
<path fill-rule="evenodd" d="M101.1,306.6h.7V261.5h-.7v45.1Z" class="g0_18"/>
<path fill-rule="evenodd" d="M835.4,306.6h.8V261.5h-.8v45.1Z" class="g0_18"/>
<path fill-rule="evenodd" d="M101.4,483.2h.8v-.8h-.8v.8Z" class="g1_18"/>
<path fill-rule="evenodd" d="M101.4,483.2h.8v-.8h-.8v.8Z" class="g1_18"/>
<path fill-rule="evenodd" d="M102.2,483.2H468.1v-.8H102.2v.8Z" class="g1_18"/>
<path fill-rule="evenodd" d="M468.1,483.2h.8v-.8h-.8v.8Z" class="g1_18"/>
<path fill-rule="evenodd" d="M468.9,483.2H835.1v-.8H468.9v.8Z" class="g1_18"/>
<path fill-rule="evenodd" d="M835.1,483.2h.7v-.8h-.7v.8Z" class="g1_18"/>
<path fill-rule="evenodd" d="M835.1,483.2h.7v-.8h-.7v.8Z" class="g1_18"/>
<path fill-rule="evenodd" d="M101.4,740.2h.8v-257h-.8v257Z" class="g1_18"/>
<path fill-rule="evenodd" d="M101.4,741h.8v-.8h-.8v.8Z" class="g1_18"/>
<path fill-rule="evenodd" d="M101.4,741h.8v-.8h-.8v.8Z" class="g1_18"/>
<path fill-rule="evenodd" d="M102.2,741H468.1v-.8H102.2v.8Z" class="g1_18"/>
<path fill-rule="evenodd" d="M468.1,740.2h.8v-257h-.8v257Z" class="g1_18"/>
<path fill-rule="evenodd" d="M468.1,741h.8v-.8h-.8v.8Z" class="g1_18"/>
<path fill-rule="evenodd" d="M468.9,741H835.1v-.8H468.9v.8Z" class="g1_18"/>
<path fill-rule="evenodd" d="M835.1,740.2h.7v-257h-.7v257Z" class="g1_18"/>
<path fill-rule="evenodd" d="M835.1,741h.7v-.8h-.7v.8Z" class="g1_18"/>
<path fill-rule="evenodd" d="M835.1,741h.7v-.8h-.7v.8Z" class="g1_18"/>
<path fill-rule="evenodd" d="M450.5,188.1c0,-2.3,1.8,-4.2,4.2,-4.2h49.7c2.3,0,4.2,1.9,4.2,4.2c0,2.3,-1.9,4.2,-4.2,4.2H454.7c-2.4,0,-4.2,-1.9,-4.2,-4.2Z" class="g0_18"/>
<image preserveAspectRatio="none" x="230" y="560" width="113" height="114" xlink:href="img/1.png"/>
<image preserveAspectRatio="none" x="599" y="545" width="128" height="135" xlink:href="img/2.png"/>
</svg>