<?xml version="1.0" encoding="UTF-8" standalone="no"?>
<!DOCTYPE svg PUBLIC "-//W3C//DTD SVG 1.1//EN"
"http://www.w3.org/Graphics/SVG/1.1/DTD/svg11.dtd">
<svg viewBox="0 0 909 1286" version="1.1" xmlns="http://www.w3.org/2000/svg" xmlns:xlink="http://www.w3.org/1999/xlink">
<defs>
<style type="text/css"><![CDATA[
.g0_5{
fill: #F1F1F1;
}
.g1_5{
fill: #7E7E7E;
}
.g2_5{
}
]]></style>
</defs>
<path fill-rule="evenodd" d="M102.2,302H218.8V238.5H102.2V302Z" class="g0_5"/>
<path fill-rule="evenodd" d="M110,289.3H210.9V251.2H110v38.1Z" class="g0_5"/>
<path fill-rule="evenodd" d="M219.5,302h447V238.5h-447V302Z" class="g0_5"/>
<path fill-rule="evenodd" d="M227.4,289.3H658.6V251.2H227.4v38.1Z" class="g0_5"/>
<path fill-rule="evenodd" d="M667.4,302H845.9V238.5H667.4V302Z" class="g0_5"/>
<path fill-rule="evenodd" d="M675.1,289.3H838V251.2H675.1v38.1Z" class="g0_5"/>
<path fill-rule="evenodd" d="M101.4,238.5h.8v-.7h-.8v.7Z" class="g1_5"/>
<path fill-rule="evenodd" d="M101.4,238.5h.8v-.7h-.8v.7Z" class="g1_5"/>
<path fill-rule="evenodd" d="M102.2,238.5H218.8v-.7H102.2v.7Z" class="g1_5"/>
<path fill-rule="evenodd" d="M218.7,238.5h.8v-.7h-.8v.7Z" class="g1_5"/>
<path fill-rule="evenodd" d="M219.5,238.5H666.7v-.7H219.5v.7Z" class="g1_5"/>
<path fill-rule="evenodd" d="M666.7,238.5h.7v-.7h-.7v.7Z" class="g1_5"/>
<path fill-rule="evenodd" d="M667.4,238.5H845.9v-.7H667.4v.7Z" class="g1_5"/>
<path fill-rule="evenodd" d="M845.9,238.5h.7v-.7h-.7v.7Z" class="g1_5"/>
<path fill-rule="evenodd" d="M845.9,238.5h.7v-.7h-.7v.7Z" class="g1_5"/>
<path fill-rule="evenodd" d="M101.4,302h.8V238.5h-.8V302Z" class="g1_5"/>
<path fill-rule="evenodd" d="M218.7,302h.8V238.5h-.8V302Z" class="g1_5"/>
<path fill-rule="evenodd" d="M666.7,302h.7V238.5h-.7V302Z" class="g1_5"/>
<path fill-rule="evenodd" d="M845.9,302h.7V238.5h-.7V302Z" class="g1_5"/>
<path fill-rule="evenodd" d="M101.4,302.7h.8V302h-.8v.7Z" class="g1_5"/>
<path fill-rule="evenodd" d="M102.2,302.7H218.8V302H102.2v.7Z" class="g1_5"/>
<path fill-rule="evenodd" d="M218.7,302.7h.8V302h-.8v.7Z" class="g1_5"/>
<path fill-rule="evenodd" d="M219.5,302.7H666.7V302H219.5v.7Z" class="g1_5"/>
<path fill-rule="evenodd" d="M666.7,302.7h.7V302h-.7v.7Z" class="g1_5"/>
<path fill-rule="evenodd" d="M667.4,302.7H845.9V302H667.4v.7Z" class="g1_5"/>
<path fill-rule="evenodd" d="M845.9,302.7h.7V302h-.7v.7Z" class="g1_5"/>
<path fill-rule="evenodd" d="M101.4,366.1h.8V302.7h-.8v63.4Z" class="g1_5"/>
<path fill-rule="evenodd" d="M218.7,366.1h.8V302.7h-.8v63.4Z" class="g1_5"/>
<path fill-rule="evenodd" d="M666.7,366.1h.7V302.7h-.7v63.4Z" class="g1_5"/>
<path fill-rule="evenodd" d="M845.9,366.1h.7V302.7h-.7v63.4Z" class="g1_5"/>
<path fill-rule="evenodd" d="M101.4,366.9h.8v-.8h-.8v.8Z" class="g1_5"/>
<path fill-rule="evenodd" d="M102.2,366.9H218.8v-.8H102.2v.8Z" class="g1_5"/>
<path fill-rule="evenodd" d="M218.7,366.9h.8v-.8h-.8v.8Z" class="g1_5"/>
<path fill-rule="evenodd" d="M219.5,366.9H666.7v-.8H219.5v.8Z" class="g1_5"/>
<path fill-rule="evenodd" d="M666.7,366.9h.7v-.8h-.7v.8Z" class="g1_5"/>
<path fill-rule="evenodd" d="M667.4,366.9H845.9v-.8H667.4v.8Z" class="g1_5"/>
<path fill-rule="evenodd" d="M845.9,366.9h.7v-.8h-.7v.8Z" class="g1_5"/>
<path fill-rule="evenodd" d="M101.4,433.7h.8V366.9h-.8v66.8Z" class="g1_5"/>
<path fill-rule="evenodd" d="M218.7,433.7h.8V366.9h-.8v66.8Z" class="g1_5"/>
<path fill-rule="evenodd" d="M666.7,433.7h.7V366.9h-.7v66.8Z" class="g1_5"/>
<path fill-rule="evenodd" d="M845.9,433.7h.7V366.9h-.7v66.8Z" class="g1_5"/>
<path fill-rule="evenodd" d="M101.4,434.4h.8v-.7h-.8v.7Z" class="g1_5"/>
<path fill-rule="evenodd" d="M102.2,434.4H218.8v-.7H102.2v.7Z" class="g1_5"/>
<path fill-rule="evenodd" d="M218.7,434.4h.8v-.7h-.8v.7Z" class="g1_5"/>
<path fill-rule="evenodd" d="M219.5,434.4H666.7v-.7H219.5v.7Z" class="g1_5"/>
<path fill-rule="evenodd" d="M666.7,434.4h.7v-.7h-.7v.7Z" class="g1_5"/>
<path fill-rule="evenodd" d="M667.4,434.4H845.9v-.7H667.4v.7Z" class="g1_5"/>
<path fill-rule="evenodd" d="M845.9,434.4h.7v-.7h-.7v.7Z" class="g1_5"/>
<path fill-rule="evenodd" d="M101.4,497.8h.8V434.4h-.8v63.4Z" class="g1_5"/>
<path fill-rule="evenodd" d="M218.7,497.8h.8V434.4h-.8v63.4Z" class="g1_5"/>
<path fill-rule="evenodd" d="M666.7,497.8h.7V434.4h-.7v63.4Z" class="g1_5"/>
<path fill-rule="evenodd" d="M845.9,497.8h.7V434.4h-.7v63.4Z" class="g1_5"/>
<path fill-rule="evenodd" d="M101.4,498.6h.8v-.8h-.8v.8Z" class="g1_5"/>
<path fill-rule="evenodd" d="M102.2,498.6H218.8v-.8H102.2v.8Z" class="g1_5"/>
<path fill-rule="evenodd" d="M218.7,498.6h.8v-.8h-.8v.8Z" class="g1_5"/>
<path fill-rule="evenodd" d="M219.5,498.6H666.7v-.8H219.5v.8Z" class="g1_5"/>
<path fill-rule="evenodd" d="M666.7,498.6h.7v-.8h-.7v.8Z" class="g1_5"/>
<path fill-rule="evenodd" d="M667.4,498.6H845.9v-.8H667.4v.8Z" class="g1_5"/>
<path fill-rule="evenodd" d="M845.9,498.6h.7v-.8h-.7v.8Z" class="g1_5"/>
<path fill-rule="evenodd" d="M101.4,562h.8V498.6h-.8V562Z" class="g1_5"/>
<path fill-rule="evenodd" d="M218.7,562h.8V498.6h-.8V562Z" class="g1_5"/>
<path fill-rule="evenodd" d="M666.7,562h.7V498.6h-.7V562Z" class="g1_5"/>
<path fill-rule="evenodd" d="M845.9,562h.7V498.6h-.7V562Z" class="g1_5"/>
<path fill-rule="evenodd" d="M101.4,562.7h.8V562h-.8v.7Z" class="g1_5"/>
<path fill-rule="evenodd" d="M102.2,562.7H218.8V562H102.2v.7Z" class="g1_5"/>
<path fill-rule="evenodd" d="M218.7,562.7h.8V562h-.8v.7Z" class="g1_5"/>
<path fill-rule="evenodd" d="M219.5,562.7H666.7V562H219.5v.7Z" class="g1_5"/>
<path fill-rule="evenodd" d="M666.7,562.7h.7V562h-.7v.7Z" class="g1_5"/>
<path fill-rule="evenodd" d="M667.4,562.7H845.9V562H667.4v.7Z" class="g1_5"/>
<path fill-rule="evenodd" d="M845.9,562.7h.7V562h-.7v.7Z" class="g1_5"/>
<path fill-rule="evenodd" d="M101.4,629.6h.8V562.7h-.8v66.9Z" class="g1_5"/>
<path fill-rule="evenodd" d="M218.7,629.6h.8V562.7h-.8v66.9Z" class="g1_5"/>
<path fill-rule="evenodd" d="M666.7,629.6h.7V562.7h-.7v66.9Z" class="g1_5"/>
<path fill-rule="evenodd" d="M845.9,629.6h.7V562.7h-.7v66.9Z" class="g1_5"/>
<path fill-rule="evenodd" d="M101.4,630.4h.8v-.8h-.8v.8Z" class="g1_5"/>
<path fill-rule="evenodd" d="M102.2,630.4H218.8v-.8H102.2v.8Z" class="g1_5"/>
<path fill-rule="evenodd" d="M218.7,630.4h.8v-.8h-.8v.8Z" class="g1_5"/>
<path fill-rule="evenodd" d="M219.5,630.4H666.7v-.8H219.5v.8Z" class="g1_5"/>
<path fill-rule="evenodd" d="M666.7,630.4h.7v-.8h-.7v.8Z" class="g1_5"/>
<path fill-rule="evenodd" d="M667.4,630.4H845.9v-.8H667.4v.8Z" class="g1_5"/>
<path fill-rule="evenodd" d="M845.9,630.4h.7v-.8h-.7v.8Z" class="g1_5"/>
<path fill-rule="evenodd" d="M101.4,693.8h.8V630.4h-.8v63.4Z" class="g1_5"/>
<path fill-rule="evenodd" d="M218.7,693.8h.8V630.4h-.8v63.4Z" class="g1_5"/>
<path fill-rule="evenodd" d="M666.7,693.8h.7V630.4h-.7v63.4Z" class="g1_5"/>
<path fill-rule="evenodd" d="M845.9,693.8h.7V630.4h-.7v63.4Z" class="g1_5"/>
<path fill-rule="evenodd" d="M101.4,694.5h.8v-.7h-.8v.7Z" class="g1_5"/>
<path fill-rule="evenodd" d="M102.2,694.5H218.8v-.7H102.2v.7Z" class="g1_5"/>
<path fill-rule="evenodd" d="M218.7,694.5h.8v-.7h-.8v.7Z" class="g1_5"/>
<path fill-rule="evenodd" d="M219.5,694.5H666.7v-.7H219.5v.7Z" class="g1_5"/>
<path fill-rule="evenodd" d="M666.7,694.5h.7v-.7h-.7v.7Z" class="g1_5"/>
<path fill-rule="evenodd" d="M667.4,694.5H845.9v-.7H667.4v.7Z" class="g1_5"/>
<path fill-rule="evenodd" d="M845.9,694.5h.7v-.7h-.7v.7Z" class="g1_5"/>
<path fill-rule="evenodd" d="M101.4,758h.8V694.5h-.8V758Z" class="g1_5"/>
<path fill-rule="evenodd" d="M218.7,758h.8V694.5h-.8V758Z" class="g1_5"/>
<path fill-rule="evenodd" d="M666.7,758h.7V694.5h-.7V758Z" class="g1_5"/>
<path fill-rule="evenodd" d="M845.9,758h.7V694.5h-.7V758Z" class="g1_5"/>
<path fill-rule="evenodd" d="M101.4,758.7h.8V758h-.8v.7Z" class="g1_5"/>
<path fill-rule="evenodd" d="M102.2,758.7H218.8V758H102.2v.7Z" class="g1_5"/>
<path fill-rule="evenodd" d="M218.7,758.7h.8V758h-.8v.7Z" class="g1_5"/>
<path fill-rule="evenodd" d="M219.5,758.7H666.7V758H219.5v.7Z" class="g1_5"/>
<path fill-rule="evenodd" d="M666.7,758.7h.7V758h-.7v.7Z" class="g1_5"/>
<path fill-rule="evenodd" d="M667.4,758.7H845.9V758H667.4v.7Z" class="g1_5"/>
<path fill-rule="evenodd" d="M845.9,758.7h.7V758h-.7v.7Z" class="g1_5"/>
<path fill-rule="evenodd" d="M101.4,825.5h.8V758.7h-.8v66.8Z" class="g1_5"/>
<path fill-rule="evenodd" d="M218.7,825.5h.8V758.7h-.8v66.8Z" class="g1_5"/>
<path fill-rule="evenodd" d="M666.7,825.5h.7V758.7h-.7v66.8Z" class="g1_5"/>
<path fill-rule="evenodd" d="M845.9,825.5h.7V758.7h-.7v66.8Z" class="g1_5"/>
<path fill-rule="evenodd" d="M101.4,826.2h.8v-.7h-.8v.7Z" class="g1_5"/>
<path fill-rule="evenodd" d="M102.2,826.2H218.8v-.7H102.2v.7Z" class="g1_5"/>
<path fill-rule="evenodd" d="M218.7,826.2h.8v-.7h-.8v.7Z" class="g1_5"/>
<path fill-rule="evenodd" d="M219.5,826.2H666.7v-.7H219.5v.7Z" class="g1_5"/>
<path fill-rule="evenodd" d="M666.7,826.2h.7v-.7h-.7v.7Z" class="g1_5"/>
<path fill-rule="evenodd" d="M667.4,826.2H845.9v-.7H667.4v.7Z" class="g1_5"/>
<path fill-rule="evenodd" d="M845.9,826.2h.7v-.7h-.7v.7Z" class="g1_5"/>
<path fill-rule="evenodd" d="M101.4,889.6h.8V826.2h-.8v63.4Z" class="g1_5"/>
<path fill-rule="evenodd" d="M218.7,889.6h.8V826.2h-.8v63.4Z" class="g1_5"/>
<path fill-rule="evenodd" d="M666.7,889.6h.7V826.2h-.7v63.4Z" class="g1_5"/>
<path fill-rule="evenodd" d="M845.9,889.6h.7V826.2h-.7v63.4Z" class="g1_5"/>
<path fill-rule="evenodd" d="M101.4,890.4h.8v-.8h-.8v.8Z" class="g1_5"/>
<path fill-rule="evenodd" d="M102.2,890.4H218.8v-.8H102.2v.8Z" class="g1_5"/>
<path fill-rule="evenodd" d="M218.7,890.4h.8v-.8h-.8v.8Z" class="g1_5"/>
<path fill-rule="evenodd" d="M219.5,890.4H666.7v-.8H219.5v.8Z" class="g1_5"/>
<path fill-rule="evenodd" d="M666.7,890.4h.7v-.8h-.7v.8Z" class="g1_5"/>
<path fill-rule="evenodd" d="M667.4,890.4H845.9v-.8H667.4v.8Z" class="g1_5"/>
<path fill-rule="evenodd" d="M845.9,890.4h.7v-.8h-.7v.8Z" class="g1_5"/>
<path fill-rule="evenodd" d="M101.4,957.1h.8V890.4h-.8v66.7Z" class="g1_5"/>
<path fill-rule="evenodd" d="M218.7,957.1h.8V890.4h-.8v66.7Z" class="g1_5"/>
<path fill-rule="evenodd" d="M666.7,957.1h.7V890.4h-.7v66.7Z" class="g1_5"/>
<path fill-rule="evenodd" d="M845.9,957.1h.7V890.4h-.7v66.7Z" class="g1_5"/>
<path fill-rule="evenodd" d="M101.4,957.8h.8v-.7h-.8v.7Z" class="g1_5"/>
<path fill-rule="evenodd" d="M102.2,957.8H218.8v-.7H102.2v.7Z" class="g1_5"/>
<path fill-rule="evenodd" d="M218.7,957.8h.8v-.7h-.8v.7Z" class="g1_5"/>
<path fill-rule="evenodd" d="M219.5,957.8H666.7v-.7H219.5v.7Z" class="g1_5"/>
<path fill-rule="evenodd" d="M666.7,957.8h.7v-.7h-.7v.7Z" class="g1_5"/>
<path fill-rule="evenodd" d="M667.4,957.8H845.9v-.7H667.4v.7Z" class="g1_5"/>
<path fill-rule="evenodd" d="M845.9,957.8h.7v-.7h-.7v.7Z" class="g1_5"/>
<path fill-rule="evenodd" d="M101.4,1021.3h.8V957.8h-.8v63.5Z" class="g1_5"/>
<path fill-rule="evenodd" d="M218.7,1021.3h.8V957.8h-.8v63.5Z" class="g1_5"/>
<path fill-rule="evenodd" d="M666.7,1021.3h.7V957.8h-.7v63.5Z" class="g1_5"/>
<path fill-rule="evenodd" d="M845.9,1021.3h.7V957.8h-.7v63.5Z" class="g1_5"/>
<path fill-rule="evenodd" d="M101.4,1022.1h.8v-.8h-.8v.8Z" class="g1_5"/>
<path fill-rule="evenodd" d="M102.2,1022.1H218.8v-.8H102.2v.8Z" class="g1_5"/>
<path fill-rule="evenodd" d="M218.7,1022.1h.8v-.8h-.8v.8Z" class="g1_5"/>
<path fill-rule="evenodd" d="M219.5,1022.1H666.7v-.8H219.5v.8Z" class="g1_5"/>
<path fill-rule="evenodd" d="M666.7,1022.1h.7v-.8h-.7v.8Z" class="g1_5"/>
<path fill-rule="evenodd" d="M667.4,1022.1H845.9v-.8H667.4v.8Z" class="g1_5"/>
<path fill-rule="evenodd" d="M845.9,1022.1h.7v-.8h-.7v.8Z" class="g1_5"/>
<path fill-rule="evenodd" d="M101.4,1085.7h.8v-63.6h-.8v63.6Z" class="g1_5"/>
<path fill-rule="evenodd" d="M101.4,1086.4h.8v-.7h-.8v.7Z" class="g1_5"/>
<path fill-rule="evenodd" d="M101.4,1086.4h.8v-.7h-.8v.7Z" class="g1_5"/>
<path fill-rule="evenodd" d="M102.2,1086.4H218.8v-.7H102.2v.7Z" class="g1_5"/>
<path fill-rule="evenodd" d="M218.7,1085.7h.8v-63.6h-.8v63.6Z" class="g1_5"/>
<path fill-rule="evenodd" d="M218.7,1086.4h.8v-.7h-.8v.7Z" class="g1_5"/>
<path fill-rule="evenodd" d="M219.5,1086.4H666.7v-.7H219.5v.7Z" class="g1_5"/>
<path fill-rule="evenodd" d="M666.7,1085.7h.7v-63.6h-.7v63.6Z" class="g1_5"/>
<path fill-rule="evenodd" d="M666.7,1086.4h.7v-.7h-.7v.7Z" class="g1_5"/>
<path fill-rule="evenodd" d="M667.4,1086.4H845.9v-.7H667.4v.7Z" class="g1_5"/>
<path fill-rule="evenodd" d="M845.9,1085.7h.7v-63.6h-.7v63.6Z" class="g1_5"/>
<path fill-rule="evenodd" d="M845.9,1086.4h.7v-.7h-.7v.7Z" class="g1_5"/>
<path fill-rule="evenodd" d="M845.9,1086.4h.7v-.7h-.7v.7Z" class="g1_5"/>
<path fill-rule="evenodd" d="M438.7,177c0,-2.3,1.9,-4.2,4.2,-4.2h49.7c2.4,0,4.2,1.9,4.2,4.2c0,2.3,-1.8,4.2,-4.2,4.2H442.9c-2.3,0,-4.2,-1.9,-4.2,-4.2Z" class="g2_5"/>
</svg>