<?xml version="1.0" encoding="UTF-8" standalone="no"?>
<!DOCTYPE svg PUBLIC "-//W3C//DTD SVG 1.1//EN"
"http://www.w3.org/Graphics/SVG/1.1/DTD/svg11.dtd">
<svg viewBox="0 0 909 1286" version="1.1" xmlns="http://www.w3.org/2000/svg" xmlns:xlink="http://www.w3.org/1999/xlink">
<defs>
<clipPath id="c0_19"><path d="M0,808.9V644.8H909.5V808.9Z"/></clipPath>
<style type="text/css"><![CDATA[
.g0_19{
}
.g1_19{
fill: #7E7E7E;
}
]]></style>
</defs>
<path fill-rule="evenodd" d="M101.1,100.7h.7v-.8h-.7v.8Z" class="g0_19"/>
<path fill-rule="evenodd" d="M101.1,100.7h.7v-.8h-.7v.8Z" class="g0_19"/>
<path fill-rule="evenodd" d="M101.8,100.7H835.4v-.8H101.8v.8Z" class="g0_19"/>
<path fill-rule="evenodd" d="M835.4,100.7h.8v-.8h-.8v.8Z" class="g0_19"/>
<path fill-rule="evenodd" d="M835.4,100.7h.8v-.8h-.8v.8Z" class="g0_19"/>
<path fill-rule="evenodd" d="M101.1,146.5h.7v-.7h-.7v.7Z" class="g0_19"/>
<path fill-rule="evenodd" d="M101.1,146.5h.7v-.7h-.7v.7Z" class="g0_19"/>
<path fill-rule="evenodd" d="M101.8,146.5H835.4v-.7H101.8v.7Z" class="g0_19"/>
<path fill-rule="evenodd" d="M835.4,146.5h.8v-.7h-.8v.7Z" class="g0_19"/>
<path fill-rule="evenodd" d="M835.4,146.5h.8v-.7h-.8v.7Z" class="g0_19"/>
<path fill-rule="evenodd" d="M101.1,145.8h.7V100.6h-.7v45.2Z" class="g0_19"/>
<path fill-rule="evenodd" d="M835.4,145.8h.8V100.6h-.8v45.2Z" class="g0_19"/>
<path fill-rule="evenodd" d="M101.4,316.6h.8v-.7h-.8v.7Z" class="g1_19"/>
<path fill-rule="evenodd" d="M101.4,316.6h.8v-.7h-.8v.7Z" class="g1_19"/>
<path fill-rule="evenodd" d="M102.2,316.6H346.6v-.7H102.2v.7Z" class="g1_19"/>
<path fill-rule="evenodd" d="M346.6,316.6h.7v-.7h-.7v.7Z" class="g1_19"/>
<path fill-rule="evenodd" d="M347.3,316.6H591.9v-.7H347.3v.7Z" class="g1_19"/>
<path fill-rule="evenodd" d="M591.9,316.6h.7v-.7h-.7v.7Z" class="g1_19"/>
<path fill-rule="evenodd" d="M592.6,316.6H837.1v-.7H592.6v.7Z" class="g1_19"/>
<path fill-rule="evenodd" d="M837.1,316.6h.7v-.7h-.7v.7Z" class="g1_19"/>
<path fill-rule="evenodd" d="M837.1,316.6h.7v-.7h-.7v.7Z" class="g1_19"/>
<path fill-rule="evenodd" d="M101.4,432.7h.8v-116h-.8v116Z" class="g1_19"/>
<path fill-rule="evenodd" d="M101.4,433.5h.8v-.8h-.8v.8Z" class="g1_19"/>
<path fill-rule="evenodd" d="M101.4,433.5h.8v-.8h-.8v.8Z" class="g1_19"/>
<path fill-rule="evenodd" d="M102.2,433.5H346.6v-.8H102.2v.8Z" class="g1_19"/>
<path fill-rule="evenodd" d="M346.6,432.7h.7v-116h-.7v116Z" class="g1_19"/>
<path fill-rule="evenodd" d="M346.6,433.5h.7v-.8h-.7v.8Z" class="g1_19"/>
<path fill-rule="evenodd" d="M347.3,433.5H591.9v-.8H347.3v.8Z" class="g1_19"/>
<path fill-rule="evenodd" d="M591.9,432.7h.7v-116h-.7v116Z" class="g1_19"/>
<path fill-rule="evenodd" d="M591.9,433.5h.7v-.8h-.7v.8Z" class="g1_19"/>
<path fill-rule="evenodd" d="M592.6,433.5H837.1v-.8H592.6v.8Z" class="g1_19"/>
<path fill-rule="evenodd" d="M837.1,432.7h.7v-116h-.7v116Z" class="g1_19"/>
<path fill-rule="evenodd" d="M837.1,433.5h.7v-.8h-.7v.8Z" class="g1_19"/>
<path fill-rule="evenodd" d="M837.1,433.5h.7v-.8h-.7v.8Z" class="g1_19"/>
<image clip-path="url(#c0_19)" preserveAspectRatio="none" x="110" y="645" width="717" height="143" xlink:href="img/1.png"/>
<image preserveAspectRatio="none" x="155" y="325" width="109" height="103" xlink:href="img/2.png"/>
<image preserveAspectRatio="none" x="424" y="338" width="89" height="88" xlink:href="img/3.jpg"/>
</svg>