<?xml version="1.0" encoding="UTF-8" standalone="no"?>
<!DOCTYPE svg PUBLIC "-//W3C//DTD SVG 1.1//EN"
"http://www.w3.org/Graphics/SVG/1.1/DTD/svg11.dtd">
<svg viewBox="0 0 909 1286" version="1.1" xmlns="http://www.w3.org/2000/svg" xmlns:xlink="http://www.w3.org/1999/xlink">
<defs>
<style type="text/css"><![CDATA[
.g0_14{
fill: #7E7E7E;
}
.g1_14{
}
]]></style>
</defs>
<path fill-rule="evenodd" d="M101.4,276.7h.8v-.8h-.8v.8Z" class="g0_14"/>
<path fill-rule="evenodd" d="M101.4,276.7h.8v-.8h-.8v.8Z" class="g0_14"/>
<path fill-rule="evenodd" d="M102.2,276.7H469.6v-.8H102.2v.8Z" class="g0_14"/>
<path fill-rule="evenodd" d="M469.6,276.7h.7v-.8h-.7v.8Z" class="g0_14"/>
<path fill-rule="evenodd" d="M470.3,276.7H837.8v-.8H470.3v.8Z" class="g0_14"/>
<path fill-rule="evenodd" d="M837.8,276.7h.7v-.8h-.7v.8Z" class="g0_14"/>
<path fill-rule="evenodd" d="M837.8,276.7h.7v-.8h-.7v.8Z" class="g0_14"/>
<path fill-rule="evenodd" d="M101.4,403.5h.8V276.7h-.8V403.5Z" class="g0_14"/>
<path fill-rule="evenodd" d="M469.6,403.5h.7V276.7h-.7V403.5Z" class="g0_14"/>
<path fill-rule="evenodd" d="M837.8,403.5h.7V276.7h-.7V403.5Z" class="g0_14"/>
<path fill-rule="evenodd" d="M101.4,404.3h.8v-.8h-.8v.8Z" class="g0_14"/>
<path fill-rule="evenodd" d="M102.2,404.3H469.6v-.8H102.2v.8Z" class="g0_14"/>
<path fill-rule="evenodd" d="M469.6,404.3h.7v-.8h-.7v.8Z" class="g0_14"/>
<path fill-rule="evenodd" d="M837.8,404.3h.7v-.8h-.7v.8Z" class="g0_14"/>
<path fill-rule="evenodd" d="M101.4,483.7h.8V404.3h-.8v79.4Z" class="g0_14"/>
<path fill-rule="evenodd" d="M469.6,483.7h.7V404.3h-.7v79.4Z" class="g0_14"/>
<path fill-rule="evenodd" d="M837.8,483.7h.7V404.3h-.7v79.4Z" class="g0_14"/>
<path fill-rule="evenodd" d="M101.4,484.4h.8v-.7h-.8v.7Z" class="g0_14"/>
<path fill-rule="evenodd" d="M102.2,484.4H469.6v-.7H102.2v.7Z" class="g0_14"/>
<path fill-rule="evenodd" d="M469.6,484.4h.7v-.7h-.7v.7Z" class="g0_14"/>
<path fill-rule="evenodd" d="M837.8,484.4h.7v-.7h-.7v.7Z" class="g0_14"/>
<path fill-rule="evenodd" d="M101.4,560.5h.8V484.4h-.8v76.1Z" class="g0_14"/>
<path fill-rule="evenodd" d="M469.6,560.5h.7V484.4h-.7v76.1Z" class="g0_14"/>
<path fill-rule="evenodd" d="M837.8,560.5h.7V484.4h-.7v76.1Z" class="g0_14"/>
<path fill-rule="evenodd" d="M101.4,561.3h.8v-.8h-.8v.8Z" class="g0_14"/>
<path fill-rule="evenodd" d="M102.2,561.3H469.6v-.8H102.2v.8Z" class="g0_14"/>
<path fill-rule="evenodd" d="M469.6,561.3h.7v-.8h-.7v.8Z" class="g0_14"/>
<path fill-rule="evenodd" d="M837.8,561.3h.7v-.8h-.7v.8Z" class="g0_14"/>
<path fill-rule="evenodd" d="M101.4,637.2h.8V561.3h-.8v75.9Z" class="g0_14"/>
<path fill-rule="evenodd" d="M469.6,637.2h.7V561.3h-.7v75.9Z" class="g0_14"/>
<path fill-rule="evenodd" d="M837.8,637.2h.7V561.3h-.7v75.9Z" class="g0_14"/>
<path fill-rule="evenodd" d="M101.4,637.9h.8v-.7h-.8v.7Z" class="g0_14"/>
<path fill-rule="evenodd" d="M102.2,637.9H469.6v-.7H102.2v.7Z" class="g0_14"/>
<path fill-rule="evenodd" d="M469.6,637.9h.7v-.7h-.7v.7Z" class="g0_14"/>
<path fill-rule="evenodd" d="M837.8,637.9h.7v-.7h-.7v.7Z" class="g0_14"/>
<path fill-rule="evenodd" d="M101.4,713.8h.8V637.9h-.8v75.9Z" class="g0_14"/>
<path fill-rule="evenodd" d="M469.6,713.8h.7V637.9h-.7v75.9Z" class="g0_14"/>
<path fill-rule="evenodd" d="M837.8,713.8h.7V637.9h-.7v75.9Z" class="g0_14"/>
<path fill-rule="evenodd" d="M101.4,714.6h.8v-.8h-.8v.8Z" class="g0_14"/>
<path fill-rule="evenodd" d="M102.2,714.6H469.6v-.8H102.2v.8Z" class="g0_14"/>
<path fill-rule="evenodd" d="M469.6,714.6h.7v-.8h-.7v.8Z" class="g0_14"/>
<path fill-rule="evenodd" d="M837.8,714.6h.7v-.8h-.7v.8Z" class="g0_14"/>
<path fill-rule="evenodd" d="M101.4,794.1h.8V714.6h-.8v79.5Z" class="g0_14"/>
<path fill-rule="evenodd" d="M469.6,794.1h.7V714.6h-.7v79.5Z" class="g0_14"/>
<path fill-rule="evenodd" d="M837.8,794.1h.7V714.6h-.7v79.5Z" class="g0_14"/>
<path fill-rule="evenodd" d="M101.4,794.9h.8v-.8h-.8v.8Z" class="g0_14"/>
<path fill-rule="evenodd" d="M102.2,794.9H469.6v-.8H102.2v.8Z" class="g0_14"/>
<path fill-rule="evenodd" d="M469.6,794.9h.7v-.8h-.7v.8Z" class="g0_14"/>
<path fill-rule="evenodd" d="M837.8,794.9h.7v-.8h-.7v.8Z" class="g0_14"/>
<path fill-rule="evenodd" d="M101.4,870.8h.8V794.9h-.8v75.9Z" class="g0_14"/>
<path fill-rule="evenodd" d="M469.6,870.8h.7V794.9h-.7v75.9Z" class="g0_14"/>
<path fill-rule="evenodd" d="M837.8,870.8h.7V794.9h-.7v75.9Z" class="g0_14"/>
<path fill-rule="evenodd" d="M101.4,871.5h.8v-.7h-.8v.7Z" class="g0_14"/>
<path fill-rule="evenodd" d="M102.2,871.5H469.6v-.7H102.2v.7Z" class="g0_14"/>
<path fill-rule="evenodd" d="M469.6,871.5h.7v-.7h-.7v.7Z" class="g0_14"/>
<path fill-rule="evenodd" d="M837.8,871.5h.7v-.7h-.7v.7Z" class="g0_14"/>
<path fill-rule="evenodd" d="M101.4,951.1h.8V871.5h-.8v79.6Z" class="g0_14"/>
<path fill-rule="evenodd" d="M101.4,951.8h.8v-.7h-.8v.7Z" class="g0_14"/>
<path fill-rule="evenodd" d="M101.4,951.8h.8v-.7h-.8v.7Z" class="g0_14"/>
<path fill-rule="evenodd" d="M102.2,951.8H469.6v-.7H102.2v.7Z" class="g0_14"/>
<path fill-rule="evenodd" d="M469.6,951.1h.7V871.5h-.7v79.6Z" class="g0_14"/>
<path fill-rule="evenodd" d="M469.6,951.8h.7v-.7h-.7v.7Z" class="g0_14"/>
<path fill-rule="evenodd" d="M470.3,951.8H837.8v-.7H470.3v.7Z" class="g0_14"/>
<path fill-rule="evenodd" d="M837.8,951.1h.7V871.5h-.7v79.6Z" class="g0_14"/>
<path fill-rule="evenodd" d="M837.8,951.8h.7v-.7h-.7v.7Z" class="g0_14"/>
<path fill-rule="evenodd" d="M837.8,951.8h.7v-.7h-.7v.7Z" class="g0_14"/>
<path fill-rule="evenodd" d="M450.5,203.4c0,-2.3,1.8,-4.2,4.2,-4.2h49.7c2.3,0,4.2,1.9,4.2,4.2c0,2.3,-1.9,4.2,-4.2,4.2H454.7c-2.4,0,-4.2,-1.9,-4.2,-4.2Z" class="g1_14"/>
</svg>